<mxfile host="app.diagrams.net" modified="2023-11-14T09:16:52.738Z" agent="Mozilla/5.0 (X11; Ubuntu; Linux x86_64; rv:109.0) Gecko/20100101 Firefox/119.0" etag="g1ZeY_ooL3cjxQXWNdzn" version="22.1.0" type="github">
  <diagram name="PÃ¡gina-1" id="zK7Hbg4alJaxwtdKwPkB">
    <mxGraphModel dx="1434" dy="739" grid="1" gridSize="10" guides="1" tooltips="1" connect="1" arrows="1" fold="1" page="1" pageScale="1" pageWidth="827" pageHeight="1169" math="0" shadow="0">
      <root>
        <mxCell id="0" />
        <mxCell id="1" parent="0" />
        <mxCell id="BhYXr5kzxdWpoGqOirLo-12" style="edgeStyle=orthogonalEdgeStyle;rounded=0;orthogonalLoop=1;jettySize=auto;html=1;endArrow=none;endFill=0;" edge="1" parent="1" source="BhYXr5kzxdWpoGqOirLo-3" target="BhYXr5kzxdWpoGqOirLo-10">
          <mxGeometry relative="1" as="geometry">
            <mxPoint x="520" y="550" as="targetPoint" />
          </mxGeometry>
        </mxCell>
        <mxCell id="BhYXr5kzxdWpoGqOirLo-3" value="FRACCION" style="whiteSpace=wrap;html=1;align=center;fillColor=#dae8fc;strokeColor=#6c8ebf;" vertex="1" parent="1">
          <mxGeometry x="364" y="380" width="100" height="40" as="geometry" />
        </mxCell>
        <mxCell id="BhYXr5kzxdWpoGqOirLo-5" value="numerador" style="ellipse;whiteSpace=wrap;html=1;align=center;fontStyle=4;fillColor=#dae8fc;strokeColor=#6c8ebf;" vertex="1" parent="1">
          <mxGeometry x="290" y="290" width="100" height="40" as="geometry" />
        </mxCell>
        <mxCell id="BhYXr5kzxdWpoGqOirLo-8" style="edgeStyle=orthogonalEdgeStyle;rounded=0;orthogonalLoop=1;jettySize=auto;html=1;entryX=0.75;entryY=0;entryDx=0;entryDy=0;endArrow=none;endFill=0;fillColor=#dae8fc;strokeColor=#6c8ebf;" edge="1" parent="1" source="BhYXr5kzxdWpoGqOirLo-6" target="BhYXr5kzxdWpoGqOirLo-3">
          <mxGeometry relative="1" as="geometry" />
        </mxCell>
        <mxCell id="BhYXr5kzxdWpoGqOirLo-6" value="denominador" style="ellipse;whiteSpace=wrap;html=1;align=center;fontStyle=4;fillColor=#dae8fc;strokeColor=#6c8ebf;" vertex="1" parent="1">
          <mxGeometry x="440" y="290" width="100" height="40" as="geometry" />
        </mxCell>
        <mxCell id="BhYXr5kzxdWpoGqOirLo-9" style="edgeStyle=orthogonalEdgeStyle;rounded=0;orthogonalLoop=1;jettySize=auto;html=1;endArrow=none;endFill=0;fillColor=#dae8fc;strokeColor=#6c8ebf;" edge="1" parent="1" source="BhYXr5kzxdWpoGqOirLo-5" target="BhYXr5kzxdWpoGqOirLo-3">
          <mxGeometry relative="1" as="geometry" />
        </mxCell>
        <mxCell id="BhYXr5kzxdWpoGqOirLo-10" value="se reducen" style="shape=rhombus;perimeter=rhombusPerimeter;whiteSpace=wrap;html=1;align=center;fillColor=#e1d5e7;strokeColor=#9673a6;" vertex="1" parent="1">
          <mxGeometry x="480" y="555" width="120" height="60" as="geometry" />
        </mxCell>
        <mxCell id="BhYXr5kzxdWpoGqOirLo-14" style="edgeStyle=orthogonalEdgeStyle;rounded=0;orthogonalLoop=1;jettySize=auto;html=1;entryX=0.1;entryY=0.975;entryDx=0;entryDy=0;entryPerimeter=0;endArrow=none;endFill=0;" edge="1" parent="1" source="BhYXr5kzxdWpoGqOirLo-10" target="BhYXr5kzxdWpoGqOirLo-3">
          <mxGeometry relative="1" as="geometry" />
        </mxCell>
        <mxCell id="BhYXr5kzxdWpoGqOirLo-17" value="factor_reduccion" style="ellipse;whiteSpace=wrap;html=1;align=center;fillColor=#e1d5e7;strokeColor=#9673a6;" vertex="1" parent="1">
          <mxGeometry x="540" y="660" width="100" height="40" as="geometry" />
        </mxCell>
        <mxCell id="BhYXr5kzxdWpoGqOirLo-18" style="edgeStyle=orthogonalEdgeStyle;rounded=0;orthogonalLoop=1;jettySize=auto;html=1;entryX=0.667;entryY=0.933;entryDx=0;entryDy=0;entryPerimeter=0;endArrow=none;endFill=0;fillColor=#e1d5e7;strokeColor=#9673a6;" edge="1" parent="1" source="BhYXr5kzxdWpoGqOirLo-17" target="BhYXr5kzxdWpoGqOirLo-10">
          <mxGeometry relative="1" as="geometry" />
        </mxCell>
        <mxCell id="BhYXr5kzxdWpoGqOirLo-19" value="N:1" style="text;html=1;align=center;verticalAlign=middle;resizable=0;points=[];autosize=1;strokeColor=none;fillColor=none;" vertex="1" parent="1">
          <mxGeometry x="540" y="540" width="40" height="30" as="geometry" />
        </mxCell>
      </root>
    </mxGraphModel>
  </diagram>
</mxfile>
